<svg width="1024" height="1024" viewBox="0 0 1024 1024" fill="none" xmlns="http://www.w3.org/2000/svg">
  <path d="M853.142 360.731V148.688C853.142 120.569 842.357 93.6024 823.159 73.7195C803.961 53.8366 777.923 42.6665 750.773 42.6665H315.703C288.553 42.6665 262.515 53.8366 243.317 73.7195C224.119 93.6024 213.334 120.569 213.334 148.688V763.944C213.344 779.826 216.798 795.502 223.443 809.816C230.087 824.13 239.752 836.714 251.722 846.641L410.139 978.372C412.019 979.952 414.294 980.947 416.699 981.242C419.104 981.536 421.54 981.117 423.724 980.035C425.908 978.952 427.751 977.25 429.039 975.126C430.326 973.002 431.005 970.543 430.997 968.035V533.016C430.997 529.501 432.345 526.13 434.745 523.645C437.144 521.159 440.399 519.763 443.793 519.763H558.958C579.321 519.763 598.849 528.141 613.248 543.053C627.646 557.965 635.735 578.19 635.735 599.279V968.035C635.737 970.531 636.419 972.976 637.703 975.088C638.987 977.201 640.821 978.894 642.994 979.975C645.167 981.055 647.59 981.477 649.985 981.194C652.379 980.91 654.648 979.932 656.529 978.372L814.946 846.641C826.916 836.714 836.581 824.13 843.225 809.816C849.87 795.502 853.324 779.826 853.334 763.944V572.774C853.334 544.655 842.549 517.688 823.351 497.805C804.153 477.923 778.115 466.752 750.965 466.752C778.081 466.7 804.07 455.506 823.227 435.629C842.383 415.752 853.142 388.815 853.142 360.731V360.731ZM558.83 413.742H443.665C440.271 413.742 437.016 412.345 434.617 409.86C432.217 407.375 430.869 404.004 430.869 400.489V161.941C430.869 158.426 432.217 155.055 434.617 152.57C437.016 150.084 440.271 148.688 443.665 148.688H622.811C626.205 148.688 629.46 150.084 631.859 152.57C634.259 155.055 635.607 158.426 635.607 161.941V334.226C635.607 355.315 627.518 375.54 613.12 390.452C598.721 405.364 579.193 413.742 558.83 413.742V413.742Z" fill="#1c94f4"/>
</svg>
